<?xml version="1.0" encoding="UTF-8"?>
<!-- Generator: Adobe Illustrator 16.0.0, SVG Export Plug-In . SVG Version: 6.00 Build 0)  -->
<svg id="svg2" width="750" height="500" enable-background="new 0 0 452.137 537.25" version="1.1" viewBox="0 0 750 500" xml:space="preserve" xmlns="http://www.w3.org/2000/svg">


<g id="layer1" transform="translate(732.651 265.764)">
	
	
	
	
	<g id="g6463">
		<path id="path7014-6-7-28-1-9-2" d="m-732.651-15.764v250h750v-250z" fill="#e42322"/>
		<path id="path7014-6-7-28-1-9-2-88" d="m17.349-15.764v-250h-750v250z" fill="#38549d"/>
		
		
			
	</g>
</g>
<g id="g5494" transform="matrix(1.00911 0 0 -1.00911 146.94 285.882)" fill="#ffffff">
	<path id="path5366" d="m226 85.856c-41.711 0-75.528 33.816-75.528 75.528 0 33.338 21.602 61.641 51.573 71.656-18.146-8.874-30.65-27.514-30.65-49.074 0-30.154 24.451-54.605 54.605-54.605s54.605 24.451 54.605 54.605c0 21.561-12.504 40.2-30.649 49.074 29.97-10.015 51.572-38.318 51.572-71.656 0-41.712-33.816-75.528-75.528-75.528z" stroke="#999999" stroke-width="1.5"/>
	<path id="path5471" d="m225.981 106.569c-35.987 0-65.381 29.394-65.381 65.381 0 26.582 16.04 49.573 38.928 59.774-16.777-9.316-28.132-27.208-28.132-47.758 0-30.154 24.451-54.605 54.605-54.605s54.605 24.451 54.605 54.605c0 20.525-11.331 38.394-28.075 47.72 22.854-10.217 38.87-33.179 38.87-59.736-1e-3 -35.993-29.433-65.381-65.42-65.381z" stroke="#999999" stroke-width="1.5"/>
	<path id="path5519" d="m281.673 209.581c7.31-10.76 11.616-23.71 11.616-37.631 0-37.019-30.298-67.27-67.308-67.27-37.011 0-67.27 30.258-67.27 67.27 0 13.904 4.287 26.84 11.577 37.593-11.165-12.91-16.708-24.858-16.708-43.276 0-40.694 31.724-73.64 72.419-73.64 40.694 0 72.42 32.945 72.42 73.64 1e-3 18.437-5.56 30.399-16.746 43.314z"/>
	<path id="path5524" d="m225.981 113.722c-34.746 0-60.67 27.145-60.67 61.891 0 13.91 2.138 23.114 9.822 33.568-3.786-7.616-6.008-16.138-6.008-25.214 0-31.386 25.489-56.875 56.875-56.875s56.875 25.489 56.875 56.875c0 9.074-2.222 17.6-6.009 25.214 7.687-10.452 9.823-19.658 9.823-33.568 0-34.752-25.962-61.891-60.708-61.891z"/>
</g>

<g id="g527" transform="matrix(1.43322 0 0 1.43322 47.7738 -136.771)"><g id="g3239" transform="matrix(1.00818 0 0 1.00818 319.739 260.64)">
	<path id="path4209" d="m-162.206 64.82c-0.288 9.322 0.163 13.588 1.636 20.497-4.693-4.529-9.419-7.693-15.92-11.466-8.28-4.806-18.736-9.395-22.287-3.531-3.417 5.646 6.385 13.375 14.061 17.706 8.392 4.734 13.229 5.383 18.689 7.525-4.624 2.44-10.93 4.084-17.919 8.568-6.857 4.397-17.11 13.503-13.22 19.314 3.958 5.915 15.396-0.732 21.845-5.05 5.371-3.593 12.477-9.267 15.241-12.172-0.546 4.17-2.197 12.478-2.075 20.422 0.148 9.648 1.483 20.445 8.669 20.428 7.335-0.019 8.895-12.734 8.779-21.331-0.122-8.984-1.146-15.334-2.031-19.766 3.179 3.242 7.973 7.889 14.293 12.87 5.219 4.114 17.995 10.205 21.823 4.369 3.896-5.939-2.169-11.845-13.312-18.917-7.811-4.956-13.342-6.651-18.43-8.76 5.146-2.107 10.771-2.649 18.995-7.647 12.202-7.418 17.372-12.379 13.632-18.762-3.636-6.209-10.983-2.817-22.142 4.281-5.978 3.803-11.572 8.845-15.362 12.468 0.867-5.704 1.797-14.113 1.728-20.344-0.108-9.262-2.136-21.233-8.443-21.271-6.307-0.035-7.934 10.374-8.25 20.569z" fill="#f5e60a" stroke="#aa8800"/>
	
		<path id="path1755" d="m-146.516 95.656a7.49125 7.49125 0 0 1-7.489 7.49124 7.49125 7.49125 0 0 1-7.49348-7.48676 7.49125 7.49125 0 0 1 7.48452-7.49572 7.49125 7.49125 0 0 1 7.49796 7.48228" fill="#ffffff" stroke="#666666" stroke-linejoin="bevel"/>
</g><g id="g3243" transform="matrix(1.00821 0 0 1.00821 383.987 260.217)">
	<path id="path3245" d="m-99.278 65.235c-0.287 9.321 0.165 13.588 1.638 20.497-4.694-4.528-9.419-7.69-15.923-11.464-8.279-4.808-18.735-9.393-22.286-3.529-3.42 5.643 6.386 13.371 14.061 17.702 8.394 4.736 13.229 5.383 18.688 7.525-4.621 2.444-10.93 4.086-17.92 8.569-6.855 4.4-17.109 13.502-13.218 19.313 3.955 5.916 15.395-0.731 21.846-5.047 5.367-3.596 12.476-9.27 15.238-12.174-0.544 4.17-2.196 12.479-2.074 20.423 0.149 9.648 1.484 20.445 8.67 20.426 7.334-0.016 8.895-12.732 8.78-21.329-0.123-8.983-1.148-15.334-2.032-19.768 3.18 3.244 7.974 7.889 14.294 12.873 5.218 4.113 17.996 10.204 21.822 4.369 3.898-5.941-2.169-11.845-13.311-18.918-7.812-4.957-13.344-6.653-18.433-8.762 5.146-2.107 10.773-2.647 18.995-7.647 12.205-7.417 17.373-12.377 13.632-18.762-3.635-6.208-10.98-2.816-22.141 4.282-5.979 3.804-11.572 8.844-15.36 12.471 0.864-5.706 1.794-14.115 1.726-20.346-0.107-9.263-2.135-21.235-8.443-21.27-6.306-0.036-7.932 10.371-8.249 20.566z" fill="#f5e60a" stroke="#aa8800"/>
	
		<path id="path3247" d="m-83.5886 96.0725a7.49125 7.49125 0 0 1-7.489 7.49125 7.49125 7.49125 0 0 1-7.49348-7.48676 7.49125 7.49125 0 0 1 7.48452-7.49572 7.49125 7.49125 0 0 1 7.49796 7.48228" fill="#ffffff" stroke="#666666" stroke-linejoin="bevel"/>
</g></g>
<path id="rect6681" d="m0 0v500h750v-500zm50 25c4.4097 0.0021 8.74041 1.17049 12.5527 3.38672 3.78138-2.19835 8.07335-3.36613 12.4473-3.38672 4.4097 0.0021 8.74041 1.17049 12.5527 3.38672 3.78138-2.19835 8.07335-3.36613 12.4473-3.38672 4.4097 0.0021 8.7404 1.17049 12.5527 3.38672 3.78138-2.19835 8.07335-3.36613 12.4473-3.38672 4.4097 0.0021 8.7404 1.17049 12.5527 3.38672 3.78138-2.19835 8.07335-3.36613 12.4473-3.38672 4.4097 0.0021 8.7404 1.17049 12.5527 3.38672 3.78138-2.19835 8.07335-3.36613 12.4473-3.38672 4.4097 0.0021 8.7404 1.17049 12.5527 3.38672 3.78138-2.19835 8.07335-3.36613 12.4473-3.38672 4.4097 0.0021 8.7404 1.17049 12.5527 3.38672 3.78138-2.19835 8.07335-3.36613 12.4473-3.38672 4.4097 0.0021 8.7404 1.17049 12.5527 3.38672 3.78138-2.19835 8.07335-3.36613 12.4473-3.38672 4.4097 0.0021 8.7404 1.17049 12.5527 3.38672 3.78138-2.19835 8.07335-3.36613 12.4473-3.38672 4.4097 0.0021 8.7404 1.17049 12.5527 3.38672 3.78138-2.19835 8.07335-3.36613 12.4473-3.38672 4.4097 0.0021 8.7404 1.17049 12.5527 3.38672 3.78138-2.19835 8.07335-3.36613 12.4473-3.38672 4.4097 0.0021 8.7404 1.17049 12.5527 3.38672 3.78138-2.19835 8.07335-3.36613 12.4473-3.38672 4.4097 0.0021 8.7404 1.17049 12.5527 3.38672 3.78138-2.19835 8.07335-3.36613 12.4473-3.38672 4.4097 0.0021 8.7404 1.17049 12.5527 3.38672 3.78138-2.19835 8.07335-3.36613 12.4473-3.38672 4.4097 0.0021 8.7404 1.17049 12.5527 3.38672 3.78138-2.19835 8.07335-3.36613 12.4473-3.38672 4.4097 0.0021 8.7404 1.17049 12.5527 3.38672 3.78138-2.19835 8.07335-3.36613 12.4473-3.38672 4.4097 0.0021 8.7404 1.17049 12.5527 3.38672 3.78138-2.19835 8.07335-3.36613 12.4473-3.38672 4.4097 0.0021 8.7404 1.17049 12.5527 3.38672 3.78138-2.19835 8.07335-3.36613 12.4473-3.38672 4.4097 0.0021 8.7404 1.17049 12.5527 3.38672 3.78138-2.19835 8.07335-3.36613 12.4473-3.38672 4.4097 0.0021 8.7404 1.17049 12.5527 3.38672 3.78138-2.19835 8.07335-3.36613 12.4473-3.38672 4.4097 0.0021 8.7404 1.17049 12.5527 3.38672 3.78138-2.19835 8.07335-3.36613 12.4473-3.38672 4.4097 0.0021 8.7404 1.17049 12.5527 3.38672 3.78138-2.19835 8.07335-3.36613 12.4473-3.38672 4.4097 0.0021 8.7404 1.17049 12.5527 3.38672 3.78138-2.19835 8.07335-3.36613 12.4473-3.38672 4.4097 0.0021 8.7404 1.17049 12.5527 3.38672 3.78138-2.19835 8.07335-3.36613 12.4473-3.38672 4.4097 0.0021 8.7404 1.17049 12.5527 3.38672 3.78138-2.19835 8.07335-3.36613 12.4473-3.38672 4.4097 0.0021 8.7404 1.17049 12.5527 3.38672 3.78138-2.19835 8.07335-3.36613 12.4473-3.38672 13.8071 0 25 11.1929 25 25-0.0206 4.37392-1.18837 8.66589-3.38672 12.4473 2.21623 3.81233 3.38465 8.14303 3.38672 12.5527-0.0206 4.37392-1.18837 8.66589-3.38672 12.4473 2.21623 3.81233 3.38465 8.14303 3.38672 12.5527-0.0206 4.37392-1.18837 8.66589-3.38672 12.4473 2.21623 3.81233 3.38465 8.14303 3.38672 12.5527-0.0206 4.37392-1.18837 8.66589-3.38672 12.4473 2.21623 3.81233 3.38465 8.14303 3.38672 12.5527-0.0206 4.37392-1.18837 8.66589-3.38672 12.4473 2.21623 3.81233 3.38465 8.14303 3.38672 12.5527-0.0206 4.37392-1.18837 8.66589-3.38672 12.4473 2.21623 3.81233 3.38465 8.14303 3.38672 12.5527-0.0206 4.37392-1.18837 8.66589-3.38672 12.4473 2.21623 3.81233 3.38465 8.14303 3.38672 12.5527-0.0206 4.37392-1.18837 8.66589-3.38672 12.4473 2.21623 3.81233 3.38465 8.14303 3.38672 12.5527-0.0206 4.37392-1.18837 8.66589-3.38672 12.4473 2.21623 3.81233 3.38465 8.14303 3.38672 12.5527-0.0206 4.37392-1.18837 8.66589-3.38672 12.4473 2.21623 3.81233 3.38465 8.14303 3.38672 12.5527-0.0206 4.37392-1.18837 8.66589-3.38672 12.4473 2.21623 3.81233 3.38465 8.14303 3.38672 12.5527-0.0206 4.37392-1.18837 8.66589-3.38672 12.4473 2.21623 3.81233 3.38465 8.14303 3.38672 12.5527-0.0206 4.37392-1.18837 8.66589-3.38672 12.4473 2.21623 3.81233 3.38465 8.14303 3.38672 12.5527-0.0206 4.37392-1.18837 8.66589-3.38672 12.4473 2.21623 3.81233 3.38465 8.14303 3.38672 12.5527-0.0206 4.37392-1.18837 8.66589-3.38672 12.4473 2.21623 3.81233 3.38465 8.14303 3.38672 12.5527-0.0203 4.37458-1.18804 8.66727-3.38672 12.4492 2.21589 3.81175 3.3843 8.14174 3.38672 12.5508 0 13.8071-11.1929 25-25 25-4.3943-0.0197-8.7058-1.19723-12.5-3.41406-3.7942 2.21683-8.1057 3.39441-12.5 3.41406-4.3943-0.0197-8.7058-1.19723-12.5-3.41406-3.7942 2.21683-8.1057 3.39441-12.5 3.41406-4.3943-0.0197-8.7058-1.19723-12.5-3.41406-3.7942 2.21683-8.1057 3.39441-12.5 3.41406-4.3943-0.0197-8.7058-1.19723-12.5-3.41406-3.7942 2.21683-8.1057 3.39441-12.5 3.41406-4.3943-0.0197-8.7058-1.19723-12.5-3.41406-3.7942 2.21683-8.1057 3.39441-12.5 3.41406-4.3943-0.0197-8.7058-1.19723-12.5-3.41406-3.7942 2.21683-8.1057 3.39441-12.5 3.41406-4.3943-0.0197-8.7058-1.19723-12.5-3.41406-3.7942 2.21683-8.1057 3.39441-12.5 3.41406-4.3943-0.0197-8.7058-1.19723-12.5-3.41406-3.7942 2.21683-8.1057 3.39441-12.5 3.41406-4.3943-0.0197-8.7058-1.19723-12.5-3.41406-3.7942 2.21683-8.1057 3.39441-12.5 3.41406-4.3943-0.0197-8.7058-1.19723-12.5-3.41406-3.7942 2.21683-8.1057 3.39441-12.5 3.41406-4.3943-0.0197-8.7058-1.19723-12.5-3.41406-3.7942 2.21683-8.1057 3.39441-12.5 3.41406-4.3943-0.0197-8.7058-1.19723-12.5-3.41406-3.7942 2.21683-8.1057 3.39441-12.5 3.41406-4.3943-0.0197-8.7058-1.19723-12.5-3.41406-3.7942 2.21683-8.1057 3.39441-12.5 3.41406-4.3943-0.0197-8.7058-1.19723-12.5-3.41406-3.7942 2.21683-8.1057 3.39441-12.5 3.41406-4.3943-0.0197-8.7058-1.19723-12.5-3.41406-3.7942 2.21683-8.1057 3.39441-12.5 3.41406-4.3943-0.0197-8.7058-1.19723-12.5-3.41406-3.7942 2.21683-8.1057 3.39441-12.5 3.41406-4.3943-0.0197-8.7058-1.19723-12.5-3.41406-3.7942 2.21683-8.1057 3.39441-12.5 3.41406-4.3943-0.0197-8.7058-1.19723-12.5-3.41406-3.7942 2.21683-8.1057 3.39441-12.5 3.41406-4.3943-0.0197-8.7058-1.19723-12.5-3.41406-3.7942 2.21683-8.1057 3.39441-12.5 3.41406-4.3943-0.0197-8.7058-1.19723-12.5-3.41406-3.7942 2.21683-8.1057 3.39441-12.5 3.41406-4.3943-0.0197-8.7058-1.19723-12.5-3.41406-3.7942 2.21683-8.1057 3.39441-12.5 3.41406-4.3943-0.0197-8.7058-1.19723-12.5-3.41406-3.7942 2.21683-8.1057 3.39441-12.5 3.41406-4.3943-0.0197-8.7058-1.19723-12.5-3.41406-3.7942 2.21683-8.1057 3.39441-12.5 3.41406-4.3943-0.0197-8.7058-1.19723-12.5-3.41406-3.7942 2.21683-8.1057 3.39441-12.5 3.41406-4.3943-0.0197-8.7058-1.19723-12.5-3.41406-3.7942 2.21683-8.1057 3.39441-12.5 3.41406-4.3943-0.0197-8.7058-1.19723-12.5-3.41406-3.7942 2.21683-8.1057 3.39441-12.5 3.41406-13.8071 0-25-11.1929-25-25 0.01966-4.3943 1.19723-8.7058 3.41406-12.5-2.21683-3.7942-3.39441-8.1057-3.41406-12.5 0.01966-4.3943 1.19723-8.7058 3.41406-12.5-2.21683-3.7942-3.39441-8.1057-3.41406-12.5 0.01966-4.3943 1.19723-8.7058 3.41406-12.5-2.21683-3.7942-3.39441-8.1057-3.41406-12.5 0.01966-4.3943 1.19723-8.7058 3.41406-12.5-2.21683-3.7942-3.39441-8.1057-3.41406-12.5 0.01966-4.3943 1.19723-8.7058 3.41406-12.5-2.21683-3.7942-3.39441-8.1057-3.41406-12.5 0.01966-4.3943 1.19723-8.7058 3.41406-12.5-2.21683-3.7942-3.39441-8.1057-3.41406-12.5 0.01966-4.3943 1.19723-8.7058 3.41406-12.5-2.21683-3.7942-3.39441-8.1057-3.41406-12.5 0.01966-4.3943 1.19723-8.7058 3.41406-12.5-2.21683-3.7942-3.39441-8.1057-3.41406-12.5 0.01966-4.3943 1.19723-8.7058 3.41406-12.5-2.21683-3.7942-3.39441-8.1057-3.41406-12.5 0.01966-4.3943 1.19723-8.7058 3.41406-12.5-2.21683-3.7942-3.39441-8.1057-3.41406-12.5 0.01966-4.3943 1.19723-8.7058 3.41406-12.5-2.21683-3.7942-3.39441-8.1057-3.41406-12.5 0.01966-4.3943 1.19723-8.7058 3.41406-12.5-2.21683-3.7942-3.39441-8.1057-3.41406-12.5 0.01966-4.3943 1.19723-8.7058 3.41406-12.5-2.21683-3.7942-3.39441-8.1057-3.41406-12.5 0.01966-4.3943 1.19723-8.7058 3.41406-12.5-2.21683-3.7942-3.39441-8.1057-3.41406-12.5 0.019656-4.3943 1.19723-8.7058 3.41406-12.5-2.21683-3.7942-3.39441-8.1057-3.41406-12.5 0.019656-4.3943 1.19723-8.7058 3.41406-12.5-2.21683-3.7942-3.39441-8.1057-3.41406-12.5 0-13.8071 11.1929-25 25-25zm-21.5859 37.5c-18.9427-41.6667-9.47135-20.8333 0 0zm34.1387-34.1133c-41.7018-18.9245-20.8509-9.46224 0 0zm25 0c-58.3685-18.9245-29.1842-9.46224 0 0zm25 0c-75.0352-18.9245-37.5176-9.46224 0 0zm25 0c-91.7018-18.9245-45.8509-9.46224 0 0zm25 0c-108.368-18.9245-54.1842-9.46224 0 0zm25 0c-125.035-18.9245-62.5176-9.46224 0 0zm25 0c-141.702-18.9245-70.8509-9.46224 0 0zm25 0c-158.368-18.9245-79.1842-9.46224 0 0zm25 0c-175.035-18.9245-87.5176-9.46224 0 0zm25 0c-191.702-18.9245-95.8509-9.46224 0 0zm25 0c-208.368-18.9245-104.184-9.46224 0 0zm25 0c-225.035-18.9245-112.518-9.46224 0 0zm25 0c-241.702-18.9245-120.851-9.46224 0 0zm25 0c-258.368-18.9245-129.184-9.46224 0 0zm25 0c-275.035-18.9245-137.518-9.46224 0 0zm25 0c-291.702-18.9245-145.851-9.46224 0 0zm25 0c-308.368-18.9245-154.184-9.46224 0 0zm25 0c-325.035-18.9245-162.518-9.46224 0 0zm25 0c-341.702-18.9245-170.851-9.46224 0 0zm25 0c-358.368-18.9245-179.184-9.46224 0 0zm25 0c-375.035-18.9245-187.518-9.46224 0 0zm25 0c-391.702-18.9245-195.851-9.46224 0 0zm25 0c-408.368-18.9245-204.184-9.46224 0 0zm25 0c-425.035-18.9245-212.518-9.46224 0 0zm25 0c-441.702-18.9245-220.851-9.46224 0 0zm25 0c-458.368-18.9245-229.184-9.46224 0 0zm34.0606 34.0605c-481.076-41.6315-240.538-20.8158 0 0zm0 25c-481.076-58.2982-240.538-29.1491 0 0zm0 25c-481.076-74.9648-240.538-37.4824 0 0zm0 25c-481.076-91.6315-240.538-45.8158 0 0zm0 25c-481.076-108.298-240.538-54.1491 0 0zm0 25c-481.076-124.965-240.538-62.4824 0 0zm0 25c-481.076-141.632-240.538-70.8158 0 0zm0 25c-481.076-158.298-240.538-79.1491 0 0zm0 25c-481.076-174.965-240.538-87.4824 0 0zm0 25c-481.076-191.632-240.538-95.8158 0 0zm0 25c-481.076-208.298-240.538-104.149 0 0zm0 25c-481.076-224.965-240.538-112.482 0 0zm0 25c-481.076-241.632-240.538-120.816 0 0zm0 25c-481.076-258.298-240.538-129.149 0 0zm0 25c-481.076-274.965-240.538-137.482 0 0zm0 25.002c-481.076-291.633-240.538-145.816 0 0zm-34.1133 34.1367c-458.333-314.391-229.167-157.195 0 0zm-25 0c-441.667-314.391-220.833-157.195 0 0zm-25 0c-425-314.391-212.5-157.195 0 0zm-25 0c-408.333-314.391-204.167-157.195 0 0zm-25 0c-391.667-314.391-195.833-157.195 0 0zm-25 0c-375-314.391-187.5-157.195 0 0zm-25 0c-358.333-314.391-179.167-157.195 0 0zm-25 0c-341.667-314.391-170.833-157.195 0 0zm-25 0c-325-314.391-162.5-157.195 0 0zm-25 0c-308.333-314.391-154.167-157.195 0 0zm-25 0c-291.667-314.391-145.833-157.195 0 0zm-25 0c-275-314.391-137.5-157.195 0 0zm-25 0c-258.333-314.391-129.167-157.195 0 0zm-25 0c-241.667-314.391-120.833-157.195 0 0zm-25 0c-225-314.391-112.5-157.195 0 0zm-25 0c-208.333-314.391-104.167-157.195 0 0zm-25 0c-191.667-314.391-95.8333-157.195 0 0zm-25 0c-175-314.391-87.5-157.195 0 0zm-25 0c-158.333-314.391-79.1667-157.195 0 0zm-25 0c-141.667-314.391-70.8333-157.195 0 0zm-25 0c-125-314.391-62.5-157.195 0 0zm-25 0c-108.333-314.391-54.1667-157.195 0 0zm-25 0c-91.6667-314.391-45.8333-157.195 0 0zm-25 0c-75-314.391-37.5-157.195 0 0zm-25 0c-58.3333-314.391-29.1667-157.195 0 0zm-25 0c-41.6667-314.391-20.8333-157.195 0 0zm-34.0859-34.0859c-18.9427-291.667-9.47135-145.833 0 0zm0-25c-18.9427-275-9.47135-137.5 0 0zm0-25c-18.9427-258.333-9.47135-129.167 0 0zm0-25c-18.9427-241.667-9.47135-120.833 0 0zm0-25c-18.9427-225-9.47135-112.5 0 0zm0-25c-18.9427-208.333-9.47135-104.167 0 0zm0-25c-18.9427-191.667-9.47135-95.8333 0 0zm0-25c-18.9427-175-9.47135-87.5 0 0zm0-25c-18.9427-158.333-9.47135-79.1667 0 0zm0-25c-18.9427-141.667-9.47135-70.8333 0 0zm0-25c-18.9427-125-9.47135-62.5 0 0zm0-25c-18.9427-108.333-9.47135-54.1667 0 0zm0-25c-18.9427-91.6667-9.47135-45.8333 0 0zm0-25c-18.9427-75-9.47135-37.5 0 0zm0-25c-18.9427-58.3333-9.47135-29.1667 0 0z" fill="#ffffff" fill-rule="evenodd" stroke-width="2.778"/></svg>
