<svg xmlns="http://www.w3.org/2000/svg" viewBox="0 0 120 120"><defs><style>.cls-1{fill:#fff;}.cls-2{fill:none;}.cls-3{fill:#090;}</style></defs><g id="Camada_2" data-name="Camada 2"><g id="MKDev"><rect class="cls-1" width="120" height="120" rx="11.04"/><g id="Externo"><path class="cls-2" d="M73.76,87.5a33.91,33.91,0,0,1-38.52,0H39a32,32,0,0,0,31,0Z"/><path class="cls-2" d="M70,87.5a32,32,0,0,1-31,0Z"/><path class="cls-2" d="M54.5,98.5a38.88,38.88,0,0,1-27.11-11H21.25a43.41,43.41,0,0,0,66.5,0H81.61A38.88,38.88,0,0,1,54.5,98.5Z"/><path class="cls-2" d="M54.5,16A43.38,43.38,0,0,0,23,29.5h6.57a38.92,38.92,0,0,1,49.78,0H86A43.38,43.38,0,0,0,54.5,16Z"/><path class="cls-2" d="M70.48,29.5H65.65a32.08,32.08,0,0,0-22.3,0H38.52a33.92,33.92,0,0,1,32,0Z"/><path class="cls-2" d="M65.65,29.5H43.35a32.08,32.08,0,0,1,22.3,0Z"/><path class="cls-3" d="M54.5,16A43.33,43.33,0,0,1,85.23,28.76,2.5,2.5,0,0,0,87,29.5h0a2.51,2.51,0,0,0,1.75-4.29,48.38,48.38,0,0,0-68.5,0A2.51,2.51,0,0,0,22,29.5h0a2.5,2.5,0,0,0,1.77-.74A43.33,43.33,0,0,1,54.5,16Z"/><path d="M54.5,103A43.4,43.4,0,0,1,22,88.36a2.52,2.52,0,0,0-1.88-.86h0a2.5,2.5,0,0,0-1.86,4.17,48.4,48.4,0,0,0,72.5,0,2.5,2.5,0,0,0-1.86-4.17h0a2.52,2.52,0,0,0-1.88.86A43.4,43.4,0,0,1,54.5,103Z"/><path class="cls-3" d="M79.39,29.5H70.48a33.92,33.92,0,0,0-32,0H29.61a38.92,38.92,0,0,1,49.78,0Z"/><path class="cls-3" d="M81.61,87.5a38.91,38.91,0,0,1-54.22,0h7.85a33.91,33.91,0,0,0,38.52,0Z"/></g><g id="SubCirculo"><path id="DIR2" class="cls-3" d="M82.94,86.14c-.43.46-.88.92-1.33,1.36h6.14c.37-.43.73-.88,1.08-1.33H83.31C83.18,86.17,83.07,86.15,82.94,86.14Z"/><path id="DIR1" class="cls-3" d="M98,58.56c0-.21,0-.42,0-.63l0-.67c0-.37,0-.74-.07-1.11,0-.19,0-.38-.05-.57s0-.5-.07-.75-.07-.61-.11-.92c-.07-.57-.15-1.13-.25-1.69l0-.19c-.1-.58-.22-1.16-.34-1.73s-.27-1.19-.42-1.77c-.31-1.17-.66-2.31-1.06-3.44A43.88,43.88,0,0,0,86,29.5H79.39A39.2,39.2,0,0,1,90,43.28a38.86,38.86,0,0,1-1.29,35l-.33,1.62H92.9a43.32,43.32,0,0,0,3.73-9.57c.12-.48.24-1,.35-1.45.19-.86.35-1.74.49-2.62q.11-.61.18-1.23s0-.07,0-.1c.06-.44.1-.88.15-1.33.08-.91.14-1.84.17-2.78,0-.44,0-.89,0-1.33S98,58.87,98,58.56Z"/><path id="CANETA" d="M113.5,10.5,112.57,18a2.56,2.56,0,0,1-.36,1L95.55,45.08h0a43.66,43.66,0,0,0-2.8-6.28l0,0,14.54-23a2.38,2.38,0,0,1,.49-.56Z"/><path id="ESQ2" class="cls-3" d="M21.69,80.53a38.85,38.85,0,0,1-1.47-39.6h-5a43.4,43.4,0,0,0-1.78,4.34c-.13.37-.25.75-.37,1.13a40.86,40.86,0,0,0-1.38,5.65c-.06.34-.12.69-.17,1s-.07.49-.11.74l-.09.76c0,.4-.09.81-.12,1.21s-.07.81-.09,1.22h0c0,.41,0,.82-.05,1.23s0,.82,0,1.24c0,.75,0,1.5.06,2.24,0,.37,0,.74.07,1.11s0,.59.08.88.06.63.1.94.08.68.13,1,.1.67.16,1c.11.67.24,1.33.38,2s.3,1.31.47,2A42.91,42.91,0,0,0,14,75.37,43.5,43.5,0,0,0,19.26,85c.64.87,1.29,1.72,2,2.54h6.14A39,39,0,0,1,21.69,80.53Z"/><path id="ESQ1" class="cls-3" d="M29.61,29.5c-.65.54-1.28,1.11-1.9,1.7a3.36,3.36,0,0,0-1-.14h-5.1q.69-.79,1.41-1.56Z"/></g><g id="SETA"><path class="cls-3" d="M100.61,78.45a1.39,1.39,0,0,0-1.78.73l-.33.73A48.49,48.49,0,0,1,95,86.17c-.32.48-.64,1-1,1.42a1.4,1.4,0,0,0,1.58,2.14L112.07,84a.56.56,0,0,0,0-1Z"/></g><g id="MK"><path id="K" d="M92.9,79.91H88.33l.33-1.62,2-10.25a19,19,0,0,0,.43-3.69c0-2.94-.88-4.51-2.62-4.76a2.63,2.63,0,0,0-.5-.06H86.31l2-3.17v0l4-6.24A38.79,38.79,0,0,0,90,43.28l-3.27,5.24h0v0L74.34,68.35,79.75,40.1a24.11,24.11,0,0,0,.39-2.87v-.06c0-.37,0-.73,0-1.06q0-5.05-3.8-5.05H65.61A4.33,4.33,0,0,0,61.52,34l-2.4,7H71.56L62.48,86.17h3.74c2,0,3.86-1.22,5.43-3.68L83.26,64.27l-3,15.64a11.87,11.87,0,0,0-.19,1.91v0s0,.08,0,.12c0,2.63,1,4,2.84,4.16.13,0,.24,0,.37,0H95a48.49,48.49,0,0,0,3.51-6.26Z"/><path d="M19.26,85h0a3.86,3.86,0,0,1-2.86,1.19H14c-.57-.85-1.1-1.73-1.61-2.62L14,75.41v0A43.5,43.5,0,0,0,19.26,85Z"/><path d="M60.35,79.91q-.95,6.25-6.19,6.26h-8c-2.49,0-3.73-1.26-3.73-3.8a17.23,17.23,0,0,1,.46-3.48L46.6,62l-11,21.31a8,8,0,0,1-2.16,2.85h0a2.81,2.81,0,0,1-1.71.63,3.28,3.28,0,0,1-.85-.12c-1.69-.34-2.53-1.82-2.53-4.46,0-.31,0-.65.06-1v0a15.11,15.11,0,0,1,.34-2.29L34.16,54,24.27,75v0l-2.57,5.48a38.72,38.72,0,0,1-5.72-15l4.89-24.61H9.69a48.2,48.2,0,0,1,5.54-9.87h11.5a3.36,3.36,0,0,1,1,.14c1.39.38,2.09,1.64,2.09,3.81,0,.37,0,.78-.07,1.2v0a23.62,23.62,0,0,1-.35,2.45L24.59,63,34.16,43.9A26,26,0,0,1,37,39.12a5.42,5.42,0,0,1,4.21-1.8,2.17,2.17,0,0,1,1.53.9,6.23,6.23,0,0,1,1.23,4.2,18,18,0,0,1-.49,3.87L39.12,66l8.57-15.16A29.78,29.78,0,0,1,50.11,47a3.94,3.94,0,0,1,3-1,2.35,2.35,0,0,1,1.64,1,6.6,6.6,0,0,1,1.34,4.46,17.41,17.41,0,0,1-.45,3.73L50.33,79.91Z"/></g></g></g></svg>